<svg xmlns="http://www.w3.org/2000/svg" viewBox="0 0 2928 689" width="2928" height="689">
	<style>
		tspan { white-space:pre }
		.shp0 { fill: #6a7d98 } 
		.shp1 { fill: #10bccd } 
	</style>
	<path id="HSSH " fill="#6a7d98" aria-label="HSSH"  d="M1290.3 304.1L1290.3 304.1L1337.05 304.1L1371.7 160L1468.5 160L1381.05 545L1283.7 545L1315.05 400.9L1268.3 400.9L1234.2 545L1136.85 545L1224.85 160L1321.65 160L1290.3 304.1Z" />
	<path id="HSSH " fill="#10bccd" aria-label="HSSH"  d="M1623.05 291.45L1623.05 291.45L1632.4 257.35L1585.1 257.35L1569.7 316.2L1667.05 316.2L1704.45 363.5L1676.4 498.25L1617 545L1469.6 545L1432.2 498.25L1450.9 413.55L1548.25 413.55L1541.65 447.65L1588.4 447.65L1604.35 388.25L1504.25 388.25L1469.6 341.5L1498.2 206.75L1557.6 160L1701.15 160L1741.85 206.75L1719.85 291.45L1623.05 291.45ZM1896.4 291.45L1896.4 291.45L1905.75 257.35L1858.45 257.35L1843.05 316.2L1940.4 316.2L1977.8 363.5L1949.75 498.25L1890.35 545L1742.95 545L1705.55 498.25L1724.25 413.55L1821.6 413.55L1815 447.65L1861.75 447.65L1877.7 388.25L1777.6 388.25L1742.95 341.5L1771.55 206.75L1830.95 160L1974.5 160L2015.2 206.75L1993.2 291.45L1896.4 291.45ZM2132.35 304.1L2132.35 304.1L2179.1 304.1L2213.75 160L2310.55 160L2223.1 545L2125.75 545L2157.1 400.9L2110.35 400.9L2076.25 545L1978.9 545L2066.9 160L2163.7 160L2132.35 304.1Z" />
	<path id="Layer" class="shp0" d="M721.71 427.72L693.85 399.85L742.1 351.61L693.85 303.46L721.71 275.59L797.73 351.61L721.71 427.72Z" />
	<path id="Layer" fill-rule="evenodd" class="shp1" d="M1081 105.85L1081 598.15L569 598.15L569 105.85L1081 105.85ZM608.39 145.23L608.39 184.62L1041.61 184.62L1041.61 145.23L608.39 145.23ZM1041.62 558.77L1041.62 224L608.39 224L608.39 558.77L1041.62 558.77Z" />
	<path id="Layer" class="shp0" d="M687.15 470.15L953 470.15L953 509.54L687.15 509.54L687.15 470.15Z" />
</svg>