<?xml version="1.0" encoding="UTF-8"?>
<svg width="600px" height="170px" viewBox="0 0 600 170" version="1.1" xmlns="http://www.w3.org/2000/svg" xmlns:xlink="http://www.w3.org/1999/xlink">
    <title>hssh</title>
    <defs></defs>
    <g id="Page-1" stroke="none" stroke-width="1" fill="none" fill-rule="evenodd">
        <g id="hssh">
            <polygon id="HSSH" fill="#6A7D98" fill-rule="nonzero" points="248.438576 68.576349 248.438576 68.576349 264.540758 68.576349 276.475316 18.9437428 309.816303 18.9437428 279.695752 151.549943 246.165327 151.549943 256.963261 101.917336 240.861079 101.917336 229.115959 151.549943 195.585534 151.549943 225.895522 18.9437428 259.23651 18.9437428"></polygon>
            <path d="M363.04822,64.2192882 L363.04822,64.2192882 L366.268657,52.4741676 L349.977038,52.4741676 L344.67279,72.7439724 L378.203215,72.7439724 L391.08496,89.0355913 L381.423651,135.447761 L360.964409,151.549943 L310.195178,151.549943 L297.313433,135.447761 L303.754305,106.274397 L337.28473,106.274397 L335.011481,118.019518 L351.113662,118.019518 L356.607348,97.5602755 L322.129736,97.5602755 L310.195178,81.4580941 L320.045924,35.0459242 L340.505166,18.9437428 L389.948335,18.9437428 L403.966705,35.0459242 L396.389208,64.2192882 L363.04822,64.2192882 Z M457.198622,64.2192882 L457.198622,64.2192882 L460.419059,52.4741676 L444.12744,52.4741676 L438.823192,72.7439724 L472.353617,72.7439724 L485.235362,89.0355913 L475.574053,135.447761 L455.114811,151.549943 L404.34558,151.549943 L391.463835,135.447761 L397.904707,106.274397 L431.435132,106.274397 L429.161883,118.019518 L445.264064,118.019518 L450.75775,97.5602755 L416.280138,97.5602755 L404.34558,81.4580941 L414.196326,35.0459242 L434.655568,18.9437428 L484.098737,18.9437428 L498.117107,35.0459242 L490.53961,64.2192882 L457.198622,64.2192882 Z M538.467279,68.576349 L538.467279,68.576349 L554.56946,68.576349 L566.504018,18.9437428 L599.845006,18.9437428 L569.724455,151.549943 L536.19403,151.549943 L546.991963,101.917336 L530.889782,101.917336 L519.144661,151.549943 L485.614237,151.549943 L515.924225,18.9437428 L549.265212,18.9437428 L538.467279,68.576349 Z" id="HSSH" fill="#10BCCD" fill-rule="nonzero"></path>
            <polygon id="Layer" fill="#6A7D98" fill-rule="nonzero" points="52.598163 111.154994 43.0022962 101.555683 59.6211251 84.9402985 43.0022962 68.3559127 52.598163 58.7566016 78.7818599 84.9402985"></polygon>
            <path d="M176.349024,0.292766935 L176.349024,169.856487 L0,169.856487 L0,0.292766935 L176.349024,0.292766935 Z M13.5671642,13.8564868 L13.5671642,27.423651 L162.78186,27.423651 L162.78186,13.8564868 L13.5671642,13.8564868 Z M162.785304,156.292767 L162.785304,40.9873708 L13.5671642,40.9873708 L13.5671642,156.292767 L162.785304,156.292767 Z" id="Layer" fill="#10BCCD"></path>
            <polygon id="Layer" fill="#6A7D98" fill-rule="nonzero" points="40.6946039 125.769231 132.261768 125.769231 132.261768 139.336395 40.6946039 139.336395"></polygon>
        </g>
    </g>
</svg>
