<?xml version="1.0" encoding="UTF-8"?>
<svg width="550px" height="156px" viewBox="0 0 550 156" version="1.1" xmlns="http://www.w3.org/2000/svg" xmlns:xlink="http://www.w3.org/1999/xlink">
    <title>hssh</title>
    <defs></defs>
    <g id="container" stroke="none" stroke-width="1" fill="none" fill-rule="evenodd">
        <g id="hssh" fill-rule="nonzero">
            <polygon id="HSSH" fill="#6A7D98" points="227.735361 62.8616532 227.735361 62.8616532 242.495695 62.8616532 253.435706 17.3650976 283.998278 17.3650976 256.387773 138.920781 225.65155 138.920781 235.549656 93.4242247 220.789322 93.4242247 210.022962 138.920781 179.28674 138.920781 207.070895 17.3650976 237.633468 17.3650976"></polygon>
            <path d="M332.794202,58.8676808 L332.794202,58.8676808 L335.746269,48.1013203 L320.812285,48.1013203 L315.950058,66.6819747 L346.68628,66.6819747 L358.494547,81.6159587 L349.638347,124.160448 L330.884042,138.920781 L284.34558,138.920781 L272.537314,124.160448 L278.441446,97.4181972 L309.177669,97.4181972 L307.093858,108.184558 L321.85419,108.184558 L326.890069,89.4302525 L295.285591,89.4302525 L284.34558,74.6699196 L293.37543,32.1254305 L312.129736,17.3650976 L357.45264,17.3650976 L370.302813,32.1254305 L363.356774,58.8676808 L332.794202,58.8676808 Z M419.098737,58.8676808 L419.098737,58.8676808 L422.050804,48.1013203 L407.11682,48.1013203 L402.254593,66.6819747 L432.990816,66.6819747 L444.799082,81.6159587 L435.942882,124.160448 L417.188577,138.920781 L370.650115,138.920781 L358.841849,124.160448 L364.745981,97.4181972 L395.482204,97.4181972 L393.398393,108.184558 L408.158725,108.184558 L413.194604,89.4302525 L381.590127,89.4302525 L370.650115,74.6699196 L379.679966,32.1254305 L398.434271,17.3650976 L443.757176,17.3650976 L456.607348,32.1254305 L449.661309,58.8676808 L419.098737,58.8676808 Z M493.595006,62.8616532 L493.595006,62.8616532 L508.355338,62.8616532 L519.29535,17.3650976 L549.857922,17.3650976 L522.247417,138.920781 L491.511194,138.920781 L501.409299,93.4242247 L486.648967,93.4242247 L475.882606,138.920781 L445.146384,138.920781 L472.93054,17.3650976 L503.493111,17.3650976 L493.595006,62.8616532 Z" id="HSSH" fill="#10BCCD"></path>
            <polygon id="Layer" fill="#6A7D98" points="48.2149828 101.892078 39.4187715 93.0927094 54.652698 77.8619403 39.4187715 62.6595866 48.2149828 53.8602181 72.2167049 77.8619403"></polygon>
            <path d="M161.653272,0.26836969 L161.653272,155.70178 L0,155.70178 L0,0.26836969 L161.653272,0.26836969 Z M12.4365672,12.7017796 L12.4365672,25.1383467 L149.216705,25.1383467 L149.216705,12.7017796 L12.4365672,12.7017796 Z M149.219862,143.26837 L149.219862,37.5717566 L12.4365672,37.5717566 L12.4365672,143.26837 L149.219862,143.26837 Z" id="Layer" fill="#10BCCD"></path>
            <polygon id="Layer" fill="#6A7D98" points="37.3033869 115.288462 121.239954 115.288462 121.239954 127.725029 37.3033869 127.725029"></polygon>
        </g>
    </g>
</svg>
