<svg xmlns="http://www.w3.org/2000/svg" viewBox="0 0 1928 689" width="1928" height="689">
	<style>
		tspan { white-space:pre }
		.shp0 { fill: #6a7d98 } 
		.shp1 { fill: #10bccd } 
	</style>
	<path id="HSSH " fill="#6a7d98" aria-label="HSSH"  d="M790.3 304.1L790.3 304.1L837.05 304.1L871.7 160L968.5 160L881.05 545L783.7 545L815.05 400.9L768.3 400.9L734.2 545L636.85 545L724.85 160L821.65 160L790.3 304.1Z" />
	<path id="HSSH " fill="#10bccd" aria-label="HSSH"  d="M1123.05 291.45L1123.05 291.45L1132.4 257.35L1085.1 257.35L1069.7 316.2L1167.05 316.2L1204.45 363.5L1176.4 498.25L1117 545L969.6 545L932.2 498.25L950.9 413.55L1048.25 413.55L1041.65 447.65L1088.4 447.65L1104.35 388.25L1004.25 388.25L969.6 341.5L998.2 206.75L1057.6 160L1201.15 160L1241.85 206.75L1219.85 291.45L1123.05 291.45ZM1396.4 291.45L1396.4 291.45L1405.75 257.35L1358.45 257.35L1343.05 316.2L1440.4 316.2L1477.8 363.5L1449.75 498.25L1390.35 545L1242.95 545L1205.55 498.25L1224.25 413.55L1321.6 413.55L1315 447.65L1361.75 447.65L1377.7 388.25L1277.6 388.25L1242.95 341.5L1271.55 206.75L1330.95 160L1474.5 160L1515.2 206.75L1493.2 291.45L1396.4 291.45ZM1632.35 304.1L1632.35 304.1L1679.1 304.1L1713.75 160L1810.55 160L1723.1 545L1625.75 545L1657.1 400.9L1610.35 400.9L1576.25 545L1478.9 545L1566.9 160L1663.7 160L1632.35 304.1Z" />
	<path id="Layer" class="shp0" d="M221.71 427.72L193.85 399.85L242.1 351.61L193.85 303.46L221.71 275.59L297.73 351.61L221.71 427.72Z" />
	<path id="Layer" fill-rule="evenodd" class="shp1" d="M581 105.85L581 598.15L69 598.15L69 105.85L581 105.85ZM108.39 145.23L108.39 184.62L541.61 184.62L541.61 145.23L108.39 145.23ZM541.62 558.77L541.62 224L108.39 224L108.39 558.77L541.62 558.77Z" />
	<path id="Layer" class="shp0" d="M187.15 470.15L453 470.15L453 509.54L187.15 509.54L187.15 470.15Z" />
</svg>