<?xml version="1.0" encoding="UTF-8"?>
<svg width="1290px" height="330px" viewBox="0 0 1290 330" version="1.1" xmlns="http://www.w3.org/2000/svg" xmlns:xlink="http://www.w3.org/1999/xlink">
    <title>provider</title>
    <defs>
        <rect id="path-1" x="0" y="0" width="1200" height="240"></rect>
        <filter x="-6.9%" y="-21.9%" width="113.8%" height="168.8%" filterUnits="objectBoundingBox" id="filter-2">
            <feOffset dx="0" dy="30" in="SourceAlpha" result="shadowOffsetOuter1"></feOffset>
            <feGaussianBlur stdDeviation="22.5" in="shadowOffsetOuter1" result="shadowBlurOuter1"></feGaussianBlur>
            <feColorMatrix values="0 0 0 0 0   0 0 0 0 0   0 0 0 0 0  0 0 0 0.298371688 0" type="matrix" in="shadowBlurOuter1"></feColorMatrix>
        </filter>
    </defs>
    <g id="container" stroke="none" stroke-width="1" fill="none" fill-rule="evenodd">
        <g id="provider" transform="translate(45.000000, 15.000000)">
            <g id="Box">
                <use fill="black" fill-opacity="1" filter="url(#filter-2)" xlink:href="#path-1"></use>
                <use fill="#FFFFFF" fill-rule="evenodd" xlink:href="#path-1"></use>
            </g>
            <path d="M113.597656,121.2975 L111.703125,131.76 L107.113281,131.76 L112.054688,104.46 L121.039062,104.47875 C122.30209,104.51625 123.460932,104.734998 124.515625,105.135 C125.570318,105.535002 126.468746,106.097496 127.210938,106.8225 C127.953129,107.547504 128.513019,108.41312 128.890625,109.419375 C129.268231,110.42563 129.398438,111.553744 129.28125,112.80375 C129.164062,114.178757 128.789717,115.391245 128.158203,116.44125 C127.52669,117.491255 126.719406,118.378746 125.736328,119.10375 C124.75325,119.828754 123.636725,120.378748 122.386719,120.75375 C121.136713,121.128752 119.841153,121.31625 118.5,121.31625 L113.597656,121.2975 Z M114.242188,117.66 L118.714844,117.6975 C119.470056,117.6975 120.18945,117.581876 120.873047,117.350625 C121.556644,117.119374 122.165362,116.794377 122.699219,116.375625 C123.233076,115.956873 123.672524,115.450628 124.017578,114.856875 C124.362632,114.263122 124.580729,113.591254 124.671875,112.84125 C124.75,112.203747 124.727214,111.603753 124.603516,111.04125 C124.479817,110.478747 124.258465,109.988127 123.939453,109.569375 C123.620441,109.150623 123.203779,108.813126 122.689453,108.556875 C122.175128,108.300624 121.56641,108.15375 120.863281,108.11625 L115.980469,108.0975 L114.242188,117.66 Z M141.527344,121.11 L136.839844,121.11 L134.90625,131.76 L130.335938,131.76 L135.257812,104.46 L143.753906,104.47875 C145.029954,104.50375 146.211583,104.694373 147.298828,105.050625 C148.386073,105.406877 149.317053,105.922497 150.091797,106.5975 C150.86654,107.272503 151.452472,108.10687 151.849609,109.100625 C152.246747,110.09438 152.386719,111.241243 152.269531,112.54125 C152.191406,113.478755 151.979819,114.338121 151.634766,115.119375 C151.289712,115.900629 150.843753,116.600622 150.296875,117.219375 C149.749997,117.838128 149.105472,118.388123 148.363281,118.869375 C147.62109,119.350627 146.807296,119.759998 145.921875,120.0975 L149.730469,131.51625 L149.710938,131.76 L144.847656,131.76 L141.527344,121.11 Z M137.484375,117.4725 L141.488281,117.51 C142.256514,117.51 142.992184,117.403751 143.695312,117.19125 C144.398441,116.978749 145.02669,116.666252 145.580078,116.25375 C146.133466,115.841248 146.589191,115.338128 146.947266,114.744375 C147.30534,114.150622 147.536458,113.466254 147.640625,112.69125 C147.822918,111.316243 147.546228,110.225629 146.810547,109.419375 C146.074866,108.613121 144.997403,108.17875 143.578125,108.11625 L139.183594,108.0975 L137.484375,117.4725 Z M174.632812,119.85375 C174.463541,120.841255 174.219403,121.834995 173.900391,122.835 C173.581379,123.835005 173.180992,124.79437 172.699219,125.713125 C172.217446,126.63188 171.651045,127.488121 171,128.281875 C170.348955,129.075629 169.606775,129.763122 168.773438,130.344375 C167.9401,130.925628 167.02214,131.375623 166.019531,131.694375 C165.016922,132.013127 163.923183,132.16 162.738281,132.135 C161.605463,132.11 160.606124,131.916252 159.740234,131.55375 C158.874345,131.191248 158.125654,130.706878 157.494141,130.100625 C156.862627,129.494372 156.345054,128.794379 155.941406,128.000625 C155.537758,127.206871 155.231772,126.360004 155.023438,125.46 C154.815103,124.559995 154.697917,123.63188 154.671875,122.675625 C154.645833,121.71937 154.697916,120.785005 154.828125,119.8725 L155.394531,116.385 C155.550782,115.409995 155.78841,114.422505 156.107422,113.4225 C156.426434,112.422495 156.823565,111.46313 157.298828,110.544375 C157.774091,109.62562 158.330726,108.766254 158.96875,107.96625 C159.606774,107.166246 160.335933,106.475628 161.15625,105.894375 C161.976567,105.313122 162.881505,104.860002 163.871094,104.535 C164.860682,104.209998 165.947911,104.06 167.132812,104.085 C168.265631,104.11 169.27148,104.303748 170.150391,104.66625 C171.029301,105.028752 171.791012,105.509997 172.435547,106.11 C173.080081,106.710003 173.610675,107.409996 174.027344,108.21 C174.444012,109.010004 174.759765,109.86312 174.974609,110.769375 C175.189454,111.67563 175.313151,112.60687 175.345703,113.563125 C175.378255,114.51938 175.329428,115.459995 175.199219,116.385 L174.632812,119.85375 Z M170.609375,116.32875 C170.674479,115.828747 170.729817,115.275628 170.775391,114.669375 C170.820964,114.063122 170.820964,113.450628 170.775391,112.831875 C170.729817,112.213122 170.632162,111.613128 170.482422,111.031875 C170.332682,110.450622 170.104819,109.931877 169.798828,109.475625 C169.492837,109.019373 169.095706,108.647501 168.607422,108.36 C168.119138,108.072499 167.51042,107.91625 166.78125,107.89125 C166.013017,107.86625 165.326175,107.975624 164.720703,108.219375 C164.115231,108.463126 163.578127,108.800623 163.109375,109.231875 C162.640623,109.663127 162.233726,110.166247 161.888672,110.74125 C161.543618,111.316253 161.247397,111.922497 161,112.56 C160.752603,113.197503 160.547527,113.841247 160.384766,114.49125 C160.222004,115.141253 160.088542,115.759997 159.984375,116.3475 L159.417969,119.89125 C159.339843,120.378752 159.277995,120.925622 159.232422,121.531875 C159.186849,122.138128 159.180338,122.750622 159.212891,123.369375 C159.245443,123.988128 159.333333,124.591247 159.476562,125.17875 C159.619792,125.766253 159.837889,126.291248 160.130859,126.75375 C160.42383,127.216252 160.811196,127.594374 161.292969,127.888125 C161.774742,128.181876 162.380205,128.34125 163.109375,128.36625 C163.877608,128.39125 164.57096,128.281876 165.189453,128.038125 C165.807946,127.794374 166.354815,127.456877 166.830078,127.025625 C167.305341,126.594373 167.722003,126.088128 168.080078,125.506875 C168.438153,124.925622 168.747395,124.316253 169.007812,123.67875 C169.26823,123.041247 169.479817,122.394378 169.642578,121.738125 C169.805339,121.081872 169.938802,120.460003 170.042969,119.8725 L170.609375,116.32875 Z M187.25,124.86 L196.3125,104.46 L201.429688,104.46 L188.441406,131.76 L184.085938,131.76 L180.023438,104.46 L184.886719,104.46 L187.25,124.86 Z M206.234375,104.46 L222.660156,104.46 L221.976562,108.19125 L216.019531,108.19125 L212.425781,128.0475 L218.402344,128.0475 L217.71875,131.76 L201.292969,131.76 L201.976562,128.0475 L207.796875,128.0475 L211.390625,108.19125 L205.550781,108.19125 L206.234375,104.46 Z M223.929688,131.76 L228.871094,104.46 L235.375,104.47875 C237.250009,104.51625 238.877597,104.878747 240.257813,105.56625 C241.638028,106.253753 242.757808,107.172494 243.617188,108.3225 C244.476567,109.472506 245.072264,110.800617 245.404297,112.306875 C245.73633,113.813133 245.791668,115.409992 245.570313,117.0975 L245.277344,119.16 C244.990884,120.935009 244.45378,122.591242 243.666016,124.12875 C242.878251,125.666258 241.875657,127.000619 240.658203,128.131875 C239.440749,129.263131 238.024748,130.150622 236.410156,130.794375 C234.795565,131.438128 233.018239,131.76 231.078125,131.76 L223.929688,131.76 Z M232.855469,108.0975 L229.242188,128.14125 L231.253906,128.16 C232.634121,128.16 233.861323,127.919377 234.935547,127.438125 C236.009771,126.956873 236.934241,126.306879 237.708984,125.488125 C238.483728,124.669371 239.111977,123.716255 239.59375,122.62875 C240.075523,121.541245 240.414062,120.385006 240.609375,119.16 L240.941406,117.04125 C241.084636,115.991245 241.110678,114.94438 241.019531,113.900625 C240.928385,112.85687 240.667971,111.916254 240.238281,111.07875 C239.808592,110.241246 239.186853,109.550628 238.373047,109.006875 C237.559241,108.463122 236.501309,108.16625 235.199219,108.11625 L232.855469,108.0975 Z M266.039062,119.51625 L254.691406,119.51625 L253.148438,128.085 L266.429688,128.085 L265.765625,131.76 L247.894531,131.76 L252.816406,104.46 L270.570312,104.46 L269.886719,108.1725 L256.742188,108.1725 L255.335938,115.87875 L266.703125,115.87875 L266.039062,119.51625 Z M282.386719,121.11 L277.699219,121.11 L275.765625,131.76 L271.195312,131.76 L276.117188,104.46 L284.613281,104.47875 C285.889329,104.50375 287.070958,104.694373 288.158203,105.050625 C289.245448,105.406877 290.176428,105.922497 290.951172,106.5975 C291.725915,107.272503 292.311847,108.10687 292.708984,109.100625 C293.106122,110.09438 293.246094,111.241243 293.128906,112.54125 C293.050781,113.478755 292.839194,114.338121 292.494141,115.119375 C292.149087,115.900629 291.703128,116.600622 291.15625,117.219375 C290.609372,117.838128 289.964847,118.388123 289.222656,118.869375 C288.480465,119.350627 287.666671,119.759998 286.78125,120.0975 L290.589844,131.51625 L290.570312,131.76 L285.707031,131.76 L282.386719,121.11 Z M278.34375,117.4725 L282.347656,117.51 C283.115889,117.51 283.851559,117.403751 284.554688,117.19125 C285.257816,116.978749 285.886065,116.666252 286.439453,116.25375 C286.992841,115.841248 287.448566,115.338128 287.806641,114.744375 C288.164715,114.150622 288.395833,113.466254 288.5,112.69125 C288.682293,111.316243 288.405603,110.225629 287.669922,109.419375 C286.934241,108.613121 285.856778,108.17875 284.4375,108.11625 L280.042969,108.0975 L278.34375,117.4725 Z M379.613281,125.4225 L371.019531,125.4225 L367.972656,131.76 L363.109375,131.76 L377.015625,104.46 L381.039063,104.46 L384.886719,131.76 L380.316406,131.76 L379.613281,125.4225 Z M372.875,121.57875 L379.164062,121.57875 L377.992188,110.92875 L372.875,121.57875 Z M408.460938,123.34125 C408.226561,124.653757 407.800133,125.85687 407.181641,126.950625 C406.563148,128.04438 405.785161,128.981871 404.847656,129.763125 C403.910152,130.544379 402.835944,131.147498 401.625,131.5725 C400.414056,131.997502 399.105476,132.19125 397.699219,132.15375 C396.55338,132.12875 395.537765,131.941252 394.652344,131.59125 C393.766923,131.241248 393.001956,130.772503 392.357422,130.185 C391.712887,129.597497 391.179039,128.913129 390.755859,128.131875 C390.33268,127.350621 390.013673,126.513129 389.798828,125.619375 C389.583983,124.725621 389.460287,123.797505 389.427734,122.835 C389.395182,121.872495 389.44401,120.922505 389.574219,119.985 L390.160156,116.25375 C390.329428,115.253745 390.576821,114.253755 390.902344,113.25375 C391.227866,112.253745 391.638018,111.297505 392.132812,110.385 C392.627607,109.472495 393.203773,108.625629 393.861328,107.844375 C394.518883,107.063121 395.264319,106.388128 396.097656,105.819375 C396.930994,105.250622 397.852208,104.810002 398.861328,104.4975 C399.870448,104.184998 400.967442,104.04125 402.152344,104.06625 C403.558601,104.09125 404.779292,104.338123 405.814453,104.806875 C406.849615,105.275627 407.712236,105.913121 408.402344,106.719375 C409.092451,107.525629 409.616535,108.46937 409.974609,109.550625 C410.332684,110.63188 410.53125,111.803744 410.570312,113.06625 L406.019531,113.06625 C406.00651,112.378747 405.934896,111.716253 405.804688,111.07875 C405.674479,110.441247 405.453127,109.878752 405.140625,109.39125 C404.828123,108.903748 404.401695,108.506877 403.861328,108.200625 C403.320961,107.894373 402.640629,107.72875 401.820312,107.70375 C401.026038,107.67875 400.319665,107.788124 399.701172,108.031875 C399.082679,108.275626 398.529299,108.609998 398.041016,109.035 C397.552732,109.460002 397.129559,109.959997 396.771484,110.535 C396.41341,111.110003 396.104168,111.716247 395.84375,112.35375 C395.583332,112.991253 395.371746,113.641247 395.208984,114.30375 C395.046223,114.966253 394.912761,115.603747 394.808594,116.21625 L394.203125,120.00375 C394.125,120.528753 394.063151,121.097497 394.017578,121.71 C393.972005,122.322503 393.965495,122.941247 393.998047,123.56625 C394.030599,124.191253 394.118489,124.794372 394.261719,125.375625 C394.404949,125.956878 394.629556,126.478748 394.935547,126.94125 C395.241538,127.403752 395.641925,127.778749 396.136719,128.06625 C396.631513,128.353751 397.256507,128.51 398.011719,128.535 C398.858077,128.56 399.613278,128.444376 400.277344,128.188125 C400.94141,127.931874 401.517576,127.569377 402.005859,127.100625 C402.494143,126.631873 402.90104,126.081878 403.226562,125.450625 C403.552085,124.819372 403.805989,124.135004 403.988281,123.3975 L408.460938,123.34125 Z M431.9375,123.34125 C431.703124,124.653757 431.276696,125.85687 430.658203,126.950625 C430.03971,128.04438 429.261723,128.981871 428.324219,129.763125 C427.386714,130.544379 426.312506,131.147498 425.101562,131.5725 C423.890619,131.997502 422.582038,132.19125 421.175781,132.15375 C420.029942,132.12875 419.014327,131.941252 418.128906,131.59125 C417.243485,131.241248 416.478519,130.772503 415.833984,130.185 C415.18945,129.597497 414.655601,128.913129 414.232422,128.131875 C413.809243,127.350621 413.490235,126.513129 413.275391,125.619375 C413.060546,124.725621 412.936849,123.797505 412.904297,122.835 C412.871745,121.872495 412.920572,120.922505 413.050781,119.985 L413.636719,116.25375 C413.80599,115.253745 414.053384,114.253755 414.378906,113.25375 C414.704429,112.253745 415.114581,111.297505 415.609375,110.385 C416.104169,109.472495 416.680335,108.625629 417.337891,107.844375 C417.995446,107.063121 418.740881,106.388128 419.574219,105.819375 C420.407556,105.250622 421.328771,104.810002 422.337891,104.4975 C423.34701,104.184998 424.444004,104.04125 425.628906,104.06625 C427.035163,104.09125 428.255854,104.338123 429.291016,104.806875 C430.326177,105.275627 431.188799,105.913121 431.878906,106.719375 C432.569014,107.525629 433.093097,108.46937 433.451172,109.550625 C433.809247,110.63188 434.007812,111.803744 434.046875,113.06625 L429.496094,113.06625 C429.483073,112.378747 429.411459,111.716253 429.28125,111.07875 C429.151041,110.441247 428.929689,109.878752 428.617188,109.39125 C428.304686,108.903748 427.878258,108.506877 427.337891,108.200625 C426.797523,107.894373 426.117192,107.72875 425.296875,107.70375 C424.5026,107.67875 423.796227,107.788124 423.177734,108.031875 C422.559242,108.275626 422.005862,108.609998 421.517578,109.035 C421.029294,109.460002 420.606122,109.959997 420.248047,110.535 C419.889972,111.110003 419.58073,111.716247 419.320312,112.35375 C419.059895,112.991253 418.848308,113.641247 418.685547,114.30375 C418.522786,114.966253 418.389323,115.603747 418.285156,116.21625 L417.679688,120.00375 C417.601562,120.528753 417.539714,121.097497 417.494141,121.71 C417.448567,122.322503 417.442057,122.941247 417.474609,123.56625 C417.507162,124.191253 417.595051,124.794372 417.738281,125.375625 C417.881511,125.956878 418.106118,126.478748 418.412109,126.94125 C418.7181,127.403752 419.118487,127.778749 419.613281,128.06625 C420.108075,128.353751 420.733069,128.51 421.488281,128.535 C422.33464,128.56 423.08984,128.444376 423.753906,128.188125 C424.417972,127.931874 424.994138,127.569377 425.482422,127.100625 C425.970706,126.631873 426.377603,126.081878 426.703125,125.450625 C427.028647,124.819372 427.282551,124.135004 427.464844,123.3975 L431.9375,123.34125 Z M453.851563,119.51625 L442.503906,119.51625 L440.960938,128.085 L454.242188,128.085 L453.578125,131.76 L435.707031,131.76 L440.628906,104.46 L458.382813,104.46 L457.699219,108.1725 L444.554688,108.1725 L443.148438,115.87875 L454.515625,115.87875 L453.851563,119.51625 Z M474.613281,124.5975 C474.704428,123.909997 474.619793,123.316252 474.359375,122.81625 C474.098957,122.316247 473.740888,121.885002 473.285156,121.5225 C472.829425,121.159998 472.308597,120.853751 471.722656,120.60375 C471.136716,120.353749 470.563805,120.135001 470.003906,119.9475 C469.027339,119.622498 468.067062,119.222502 467.123047,118.7475 C466.179032,118.272498 465.339196,117.706878 464.603516,117.050625 C463.867835,116.394372 463.288414,115.635004 462.865234,114.7725 C462.442055,113.909996 462.269531,112.916256 462.347656,111.79125 C462.425782,110.541244 462.783851,109.43188 463.421875,108.463125 C464.059899,107.49437 464.860672,106.681878 465.824219,106.025625 C466.787765,105.369372 467.868484,104.875627 469.066406,104.544375 C470.264329,104.213123 471.462234,104.06 472.660156,104.085 C473.923183,104.11 475.085281,104.328748 476.146484,104.74125 C477.207688,105.153752 478.122392,105.725621 478.890625,106.456875 C479.658858,107.188129 480.2513,108.059995 480.667969,109.0725 C481.084638,110.085005 481.273438,111.203744 481.234375,112.42875 L476.683594,112.42875 C476.670573,111.766247 476.576173,111.153753 476.400391,110.59125 C476.224608,110.028747 475.957684,109.541252 475.599609,109.12875 C475.241535,108.716248 474.795576,108.391251 474.261719,108.15375 C473.727862,107.916249 473.089847,107.79125 472.347656,107.77875 C471.709632,107.76625 471.084638,107.844374 470.472656,108.013125 C469.860674,108.181876 469.304039,108.434998 468.802734,108.7725 C468.30143,109.110002 467.884767,109.531872 467.552734,110.038125 C467.220701,110.544378 467.015625,111.122497 466.9375,111.7725 C466.859375,112.435003 466.966795,113.000623 467.259766,113.469375 C467.552736,113.938127 467.943357,114.338123 468.431641,114.669375 C468.919924,115.000627 469.460283,115.281874 470.052734,115.513125 C470.645185,115.744376 471.208331,115.947499 471.742188,116.1225 C472.744797,116.460002 473.711584,116.878747 474.642578,117.37875 C475.573572,117.878752 476.390621,118.469372 477.09375,119.150625 C477.796879,119.831878 478.347003,120.619371 478.744141,121.513125 C479.141278,122.406879 479.300782,123.416244 479.222656,124.54125 C479.13151,125.828756 478.76693,126.95062 478.128906,127.906875 C477.490882,128.86313 476.683599,129.656872 475.707031,130.288125 C474.730464,130.919378 473.636725,131.388123 472.425781,131.694375 C471.214838,132.000627 470.003912,132.14125 468.792969,132.11625 C467.490879,132.09125 466.266933,131.875627 465.121094,131.469375 C463.975255,131.063123 462.982426,130.491254 462.142578,129.75375 C461.30273,129.016246 460.645185,128.122505 460.169922,127.0725 C459.694659,126.022495 459.476562,124.847506 459.515625,123.5475 L464.085938,123.5475 C464.098958,124.297504 464.21289,124.972497 464.427734,125.5725 C464.642579,126.172503 464.961586,126.684998 465.384766,127.11 C465.807945,127.535002 466.325518,127.866249 466.9375,128.10375 C467.549482,128.341251 468.2526,128.46625 469.046875,128.47875 C469.684899,128.49125 470.316403,128.419376 470.941406,128.263125 C471.566409,128.106874 472.136065,127.866252 472.650391,127.54125 C473.164716,127.216248 473.597654,126.810002 473.949219,126.3225 C474.300783,125.834998 474.522135,125.260003 474.613281,124.5975 Z M498.089844,124.5975 C498.18099,123.909997 498.096355,123.316252 497.835938,122.81625 C497.57552,122.316247 497.21745,121.885002 496.761719,121.5225 C496.305987,121.159998 495.785159,120.853751 495.199219,120.60375 C494.613278,120.353749 494.040367,120.135001 493.480469,119.9475 C492.503901,119.622498 491.543625,119.222502 490.599609,118.7475 C489.655594,118.272498 488.815759,117.706878 488.080078,117.050625 C487.344397,116.394372 486.764976,115.635004 486.341797,114.7725 C485.918618,113.909996 485.746093,112.916256 485.824219,111.79125 C485.902344,110.541244 486.260413,109.43188 486.898438,108.463125 C487.536462,107.49437 488.337235,106.681878 489.300781,106.025625 C490.264328,105.369372 491.345046,104.875627 492.542969,104.544375 C493.740891,104.213123 494.938796,104.06 496.136719,104.085 C497.399746,104.11 498.561844,104.328748 499.623047,104.74125 C500.68425,105.153752 501.598954,105.725621 502.367188,106.456875 C503.135421,107.188129 503.727863,108.059995 504.144531,109.0725 C504.5612,110.085005 504.75,111.203744 504.710938,112.42875 L500.160156,112.42875 C500.147135,111.766247 500.052735,111.153753 499.876953,110.59125 C499.701171,110.028747 499.434247,109.541252 499.076172,109.12875 C498.718097,108.716248 498.272138,108.391251 497.738281,108.15375 C497.204424,107.916249 496.56641,107.79125 495.824219,107.77875 C495.186195,107.76625 494.561201,107.844374 493.949219,108.013125 C493.337237,108.181876 492.780601,108.434998 492.279297,108.7725 C491.777992,109.110002 491.36133,109.531872 491.029297,110.038125 C490.697264,110.544378 490.492188,111.122497 490.414063,111.7725 C490.335937,112.435003 490.443358,113.000623 490.736328,113.469375 C491.029298,113.938127 491.419919,114.338123 491.908203,114.669375 C492.396487,115.000627 492.936846,115.281874 493.529297,115.513125 C494.121748,115.744376 494.684893,115.947499 495.21875,116.1225 C496.221359,116.460002 497.188146,116.878747 498.119141,117.37875 C499.050135,117.878752 499.867184,118.469372 500.570313,119.150625 C501.273441,119.831878 501.823566,120.619371 502.220703,121.513125 C502.617841,122.406879 502.777344,123.416244 502.699219,124.54125 C502.608072,125.828756 502.243493,126.95062 501.605469,127.906875 C500.967445,128.86313 500.160161,129.656872 499.183594,130.288125 C498.207026,130.919378 497.113287,131.388123 495.902344,131.694375 C494.6914,132.000627 493.480475,132.14125 492.269531,132.11625 C490.967441,132.09125 489.743495,131.875627 488.597656,131.469375 C487.451817,131.063123 486.458989,130.491254 485.619141,129.75375 C484.779293,129.016246 484.121747,128.122505 483.646484,127.0725 C483.171222,126.022495 482.953125,124.847506 482.992188,123.5475 L487.5625,123.5475 C487.575521,124.297504 487.689452,124.972497 487.904297,125.5725 C488.119142,126.172503 488.438149,126.684998 488.861328,127.11 C489.284507,127.535002 489.80208,127.866249 490.414063,128.10375 C491.026045,128.341251 491.729163,128.46625 492.523438,128.47875 C493.161462,128.49125 493.792966,128.419376 494.417969,128.263125 C495.042972,128.106874 495.612628,127.866252 496.126953,127.54125 C496.641279,127.216248 497.074217,126.810002 497.425781,126.3225 C497.777346,125.834998 497.998697,125.260003 498.089844,124.5975 Z M522.679688,135.285 L505.257813,135.285 L505.902344,131.76 L523.324219,131.76 L522.679688,135.285 Z M553.167969,108.1725 L544.710938,108.1725 L540.453125,131.76 L535.902344,131.76 L540.160156,108.1725 L531.742188,108.1725 L532.425781,104.46 L553.851562,104.46 L553.167969,108.1725 Z M573.734375,119.85375 C573.565103,120.841255 573.320965,121.834995 573.001953,122.835 C572.682941,123.835005 572.282554,124.79437 571.800781,125.713125 C571.319008,126.63188 570.752607,127.488121 570.101562,128.281875 C569.450518,129.075629 568.708337,129.763122 567.875,130.344375 C567.041663,130.925628 566.123703,131.375623 565.121094,131.694375 C564.118485,132.013127 563.024746,132.16 561.839844,132.135 C560.707026,132.11 559.707687,131.916252 558.841797,131.55375 C557.975907,131.191248 557.227217,130.706878 556.595703,130.100625 C555.96419,129.494372 555.446617,128.794379 555.042969,128.000625 C554.639321,127.206871 554.333334,126.360004 554.125,125.46 C553.916666,124.559995 553.799479,123.63188 553.773438,122.675625 C553.747396,121.71937 553.799479,120.785005 553.929688,119.8725 L554.496094,116.385 C554.652345,115.409995 554.889972,114.422505 555.208984,113.4225 C555.527996,112.422495 555.925128,111.46313 556.400391,110.544375 C556.875653,109.62562 557.432288,108.766254 558.070312,107.96625 C558.708337,107.166246 559.437496,106.475628 560.257812,105.894375 C561.078129,105.313122 561.983068,104.860002 562.972656,104.535 C563.962245,104.209998 565.049473,104.06 566.234375,104.085 C567.367193,104.11 568.373042,104.303748 569.251953,104.66625 C570.130864,105.028752 570.892575,105.509997 571.537109,106.11 C572.181644,106.710003 572.712238,107.409996 573.128906,108.21 C573.545575,109.010004 573.861327,109.86312 574.076172,110.769375 C574.291017,111.67563 574.414713,112.60687 574.447266,113.563125 C574.479818,114.51938 574.43099,115.459995 574.300781,116.385 L573.734375,119.85375 Z M569.710938,116.32875 C569.776042,115.828747 569.83138,115.275628 569.876953,114.669375 C569.922526,114.063122 569.922526,113.450628 569.876953,112.831875 C569.83138,112.213122 569.733725,111.613128 569.583984,111.031875 C569.434244,110.450622 569.206382,109.931877 568.900391,109.475625 C568.5944,109.019373 568.197268,108.647501 567.708984,108.36 C567.220701,108.072499 566.611983,107.91625 565.882812,107.89125 C565.114579,107.86625 564.427737,107.975624 563.822266,108.219375 C563.216794,108.463126 562.67969,108.800623 562.210938,109.231875 C561.742185,109.663127 561.335288,110.166247 560.990234,110.74125 C560.645181,111.316253 560.34896,111.922497 560.101562,112.56 C559.854165,113.197503 559.649089,113.841247 559.486328,114.49125 C559.323567,115.141253 559.190105,115.759997 559.085938,116.3475 L558.519531,119.89125 C558.441406,120.378752 558.379558,120.925622 558.333984,121.531875 C558.288411,122.138128 558.281901,122.750622 558.314453,123.369375 C558.347005,123.988128 558.434895,124.591247 558.578125,125.17875 C558.721355,125.766253 558.939452,126.291248 559.232422,126.75375 C559.525392,127.216252 559.912758,127.594374 560.394531,127.888125 C560.876304,128.181876 561.481767,128.34125 562.210938,128.36625 C562.979171,128.39125 563.672523,128.281876 564.291016,128.038125 C564.909508,127.794374 565.456378,127.456877 565.931641,127.025625 C566.406903,126.594373 566.823566,126.088128 567.181641,125.506875 C567.539715,124.925622 567.848957,124.316253 568.109375,123.67875 C568.369793,123.041247 568.581379,122.394378 568.744141,121.738125 C568.906902,121.081872 569.040364,120.460003 569.144531,119.8725 L569.710938,116.32875 Z M586.117188,119.9475 L582.425781,123.34125 L580.902344,131.76 L576.273438,131.76 L581.214844,104.46 L585.84375,104.46 L583.558594,117.0225 L586.800781,113.6475 L595.433594,104.46 L601.3125,104.46 L589.574219,116.62875 L596.585938,131.76 L591.371094,131.76 L586.117188,119.9475 Z M618.1875,119.51625 L606.839844,119.51625 L605.296875,128.085 L618.578125,128.085 L617.914062,131.76 L600.042969,131.76 L604.964844,104.46 L622.71875,104.46 L622.035156,108.1725 L608.890625,108.1725 L607.484375,115.87875 L618.851562,115.87875 L618.1875,119.51625 Z M641.136719,131.76 L636.644531,131.76 L631,112.80375 L627.5625,131.76 L622.914062,131.76 L627.855469,104.46 L632.386719,104.46 L637.972656,123.36 L641.449219,104.46 L646.078125,104.46 L641.136719,131.76 Z M712.09375,119.51625 L700.746094,119.51625 L699.203125,128.085 L712.484375,128.085 L711.820313,131.76 L693.949219,131.76 L698.871094,104.46 L716.625,104.46 L715.941406,108.1725 L702.796875,108.1725 L701.390625,115.87875 L712.757813,115.87875 L712.09375,119.51625 Z M735.042969,131.76 L730.550781,131.76 L724.90625,112.80375 L721.46875,131.76 L716.820313,131.76 L721.761719,104.46 L726.292969,104.46 L731.878906,123.36 L735.355469,104.46 L739.984375,104.46 L735.042969,131.76 Z M764.457031,108.1725 L756,108.1725 L751.742188,131.76 L747.191406,131.76 L751.449219,108.1725 L743.03125,108.1725 L743.714844,104.46 L765.140625,104.46 L764.457031,108.1725 Z M769.671875,104.46 L786.097656,104.46 L785.414063,108.19125 L779.457031,108.19125 L775.863281,128.0475 L781.839844,128.0475 L781.15625,131.76 L764.730469,131.76 L765.414063,128.0475 L771.234375,128.0475 L774.828125,108.19125 L768.988281,108.19125 L769.671875,104.46 Z M811.410156,108.1725 L802.953125,108.1725 L798.695313,131.76 L794.144531,131.76 L798.402344,108.1725 L789.984375,108.1725 L790.667969,104.46 L812.09375,104.46 L811.410156,108.1725 Z M822.40625,117.4725 L830.511719,104.46 L835.804688,104.46 L823.890625,122.17875 L822.132813,131.76 L817.679688,131.76 L819.496094,121.61625 L814.144531,104.46 L819.046875,104.46 L822.40625,117.4725 Z M851.351563,135.285 L833.929688,135.285 L834.574219,131.76 L851.996094,131.76 L851.351563,135.285 Z M863.578125,104.46 L880.003906,104.46 L879.320313,108.19125 L873.363281,108.19125 L869.769531,128.0475 L875.746094,128.0475 L875.0625,131.76 L858.636719,131.76 L859.320313,128.0475 L865.140625,128.0475 L868.734375,108.19125 L862.894531,108.19125 L863.578125,104.46 Z M881.273438,131.76 L886.214844,104.46 L892.71875,104.47875 C894.593759,104.51625 896.221347,104.878747 897.601563,105.56625 C898.981778,106.253753 900.101558,107.172494 900.960938,108.3225 C901.820317,109.472506 902.416014,110.800617 902.748047,112.306875 C903.08008,113.813133 903.135418,115.409992 902.914063,117.0975 L902.621094,119.16 C902.334634,120.935009 901.79753,122.591242 901.009766,124.12875 C900.222001,125.666258 899.219407,127.000619 898.001953,128.131875 C896.784499,129.263131 895.368498,130.150622 893.753906,130.794375 C892.139315,131.438128 890.361989,131.76 888.421875,131.76 L881.273438,131.76 Z M890.199219,108.0975 L886.585938,128.14125 L888.597656,128.16 C889.977871,128.16 891.205073,127.919377 892.279297,127.438125 C893.353521,126.956873 894.277991,126.306879 895.052734,125.488125 C895.827478,124.669371 896.455727,123.716255 896.9375,122.62875 C897.419273,121.541245 897.757812,120.385006 897.953125,119.16 L898.285156,117.04125 C898.428386,115.991245 898.454428,114.94438 898.363281,113.900625 C898.272135,112.85687 898.011721,111.916254 897.582031,111.07875 C897.152342,110.241246 896.530603,109.550628 895.716797,109.006875 C894.902991,108.463122 893.845059,108.16625 892.542969,108.11625 L890.199219,108.0975 Z M944.144531,124.5975 C944.235678,123.909997 944.151043,123.316252 943.890625,122.81625 C943.630207,122.316247 943.272138,121.885002 942.816406,121.5225 C942.360675,121.159998 941.839847,120.853751 941.253906,120.60375 C940.667966,120.353749 940.095055,120.135001 939.535156,119.9475 C938.558589,119.622498 937.598312,119.222502 936.654297,118.7475 C935.710282,118.272498 934.870446,117.706878 934.134766,117.050625 C933.399085,116.394372 932.819664,115.635004 932.396484,114.7725 C931.973305,113.909996 931.800781,112.916256 931.878906,111.79125 C931.957032,110.541244 932.315101,109.43188 932.953125,108.463125 C933.591149,107.49437 934.391922,106.681878 935.355469,106.025625 C936.319015,105.369372 937.399734,104.875627 938.597656,104.544375 C939.795579,104.213123 940.993484,104.06 942.191406,104.085 C943.454433,104.11 944.616531,104.328748 945.677734,104.74125 C946.738938,105.153752 947.653642,105.725621 948.421875,106.456875 C949.190108,107.188129 949.78255,108.059995 950.199219,109.0725 C950.615888,110.085005 950.804688,111.203744 950.765625,112.42875 L946.214844,112.42875 C946.201823,111.766247 946.107423,111.153753 945.931641,110.59125 C945.755858,110.028747 945.488934,109.541252 945.130859,109.12875 C944.772785,108.716248 944.326826,108.391251 943.792969,108.15375 C943.259112,107.916249 942.621097,107.79125 941.878906,107.77875 C941.240882,107.76625 940.615888,107.844374 940.003906,108.013125 C939.391924,108.181876 938.835289,108.434998 938.333984,108.7725 C937.83268,109.110002 937.416017,109.531872 937.083984,110.038125 C936.751951,110.544378 936.546875,111.122497 936.46875,111.7725 C936.390625,112.435003 936.498045,113.000623 936.791016,113.469375 C937.083986,113.938127 937.474607,114.338123 937.962891,114.669375 C938.451174,115.000627 938.991533,115.281874 939.583984,115.513125 C940.176435,115.744376 940.739581,115.947499 941.273438,116.1225 C942.276047,116.460002 943.242834,116.878747 944.173828,117.37875 C945.104822,117.878752 945.921871,118.469372 946.625,119.150625 C947.328129,119.831878 947.878253,120.619371 948.275391,121.513125 C948.672528,122.406879 948.832032,123.416244 948.753906,124.54125 C948.66276,125.828756 948.29818,126.95062 947.660156,127.906875 C947.022132,128.86313 946.214849,129.656872 945.238281,130.288125 C944.261714,130.919378 943.167975,131.388123 941.957031,131.694375 C940.746088,132.000627 939.535162,132.14125 938.324219,132.11625 C937.022129,132.09125 935.798183,131.875627 934.652344,131.469375 C933.506505,131.063123 932.513676,130.491254 931.673828,129.75375 C930.83398,129.016246 930.176435,128.122505 929.701172,127.0725 C929.225909,126.022495 929.007812,124.847506 929.046875,123.5475 L933.617188,123.5475 C933.630208,124.297504 933.74414,124.972497 933.958984,125.5725 C934.173829,126.172503 934.492836,126.684998 934.916016,127.11 C935.339195,127.535002 935.856768,127.866249 936.46875,128.10375 C937.080732,128.341251 937.78385,128.46625 938.578125,128.47875 C939.216149,128.49125 939.847653,128.419376 940.472656,128.263125 C941.097659,128.106874 941.667315,127.866252 942.181641,127.54125 C942.695966,127.216248 943.128904,126.810002 943.480469,126.3225 C943.832033,125.834998 944.053385,125.260003 944.144531,124.5975 Z M974.847656,104.46 L971.625,122.70375 C971.416666,124.041257 971.019534,125.288119 970.433594,126.444375 C969.847653,127.600631 969.095708,128.606871 968.177734,129.463125 C967.259761,130.319379 966.192063,130.984998 964.974609,131.46 C963.757155,131.935002 962.412768,132.16 960.941406,132.135 C959.574212,132.11 958.379562,131.838128 957.357422,131.319375 C956.335281,130.800622 955.498701,130.113129 954.847656,129.256875 C954.196611,128.400621 953.734376,127.413131 953.460938,126.294375 C953.187499,125.175619 953.122395,123.997506 953.265625,122.76 L956.546875,104.46 L961.039062,104.46 L957.835938,122.76 C957.757812,123.385003 957.748047,124.028747 957.806641,124.69125 C957.865235,125.353753 958.021483,125.959997 958.275391,126.51 C958.529298,127.060003 958.903643,127.516248 959.398438,127.87875 C959.893232,128.241252 960.537756,128.435 961.332031,128.46 C962.191411,128.4975 962.949867,128.353752 963.607422,128.02875 C964.264977,127.703748 964.828123,127.269378 965.296875,126.725625 C965.765627,126.181872 966.146483,125.560003 966.439453,124.86 C966.732423,124.159996 966.937499,123.447504 967.054688,122.7225 L970.335938,104.46 L974.847656,104.46 Z M975.394531,131.76 L980.335938,104.46 L988.890625,104.47875 C990.036464,104.50375 991.143224,104.663124 992.210938,104.956875 C993.278651,105.250626 994.209631,105.688122 995.003906,106.269375 C995.798181,106.850628 996.413409,107.591245 996.849609,108.49125 C997.285809,109.391254 997.451823,110.459994 997.347656,111.6975 C997.282552,112.447504 997.103517,113.128747 996.810547,113.74125 C996.517577,114.353753 996.139976,114.900623 995.677734,115.381875 C995.215492,115.863127 994.681644,116.291248 994.076172,116.66625 C993.4707,117.041252 992.82943,117.366249 992.152344,117.64125 C992.81641,117.878751 993.389321,118.203748 993.871094,118.61625 C994.352867,119.028752 994.743488,119.500622 995.042969,120.031875 C995.342449,120.563128 995.554036,121.138122 995.677734,121.756875 C995.801433,122.375628 995.84375,123.009997 995.804688,123.66 C995.70052,125.022507 995.332685,126.21312 994.701172,127.231875 C994.069658,128.25063 993.262375,129.097497 992.279297,129.7725 C991.296219,130.447503 990.186204,130.950623 988.949219,131.281875 C987.712233,131.613127 986.436204,131.7725 985.121094,131.76 L975.394531,131.76 Z M982.230469,119.385 L980.648438,128.085 L985.375,128.1225 C986.091149,128.11 986.781247,128.003751 987.445313,127.80375 C988.109378,127.603749 988.705075,127.316252 989.232422,126.94125 C989.759768,126.566248 990.202472,126.103753 990.560547,125.55375 C990.918622,125.003747 991.149739,124.372504 991.253906,123.66 C991.332032,123.047497 991.309245,122.485003 991.185547,121.9725 C991.061848,121.459997 990.843752,121.019377 990.53125,120.650625 C990.218748,120.281873 989.815107,119.988126 989.320313,119.769375 C988.825518,119.550624 988.259118,119.42875 987.621094,119.40375 L982.230469,119.385 Z M982.835938,115.95375 L986.976563,115.99125 C987.640628,115.97875 988.294919,115.888126 988.939453,115.719375 C989.583988,115.550624 990.166664,115.297502 990.6875,114.96 C991.208336,114.622498 991.647785,114.200628 992.005859,113.694375 C992.363934,113.188122 992.595052,112.591253 992.699219,111.90375 C992.790365,111.266247 992.751303,110.719377 992.582031,110.263125 C992.41276,109.806873 992.145835,109.428751 991.78125,109.12875 C991.416665,108.828748 990.977216,108.603751 990.462891,108.45375 C989.948565,108.303749 989.39193,108.21625 988.792969,108.19125 L984.261719,108.1725 L982.835938,115.95375 Z M1005.70703,121.2975 L1003.8125,131.76 L999.222656,131.76 L1004.16406,104.46 L1013.14844,104.47875 C1014.41146,104.51625 1015.57031,104.734998 1016.625,105.135 C1017.67969,105.535002 1018.57812,106.097496 1019.32031,106.8225 C1020.0625,107.547504 1020.62239,108.41312 1021,109.419375 C1021.37761,110.42563 1021.50781,111.553744 1021.39063,112.80375 C1021.27344,114.178757 1020.89909,115.391245 1020.26758,116.44125 C1019.63606,117.491255 1018.82878,118.378746 1017.8457,119.10375 C1016.86263,119.828754 1015.7461,120.378748 1014.49609,120.75375 C1013.24609,121.128752 1011.95053,121.31625 1010.60938,121.31625 L1005.70703,121.2975 Z M1006.35156,117.66 L1010.82422,117.6975 C1011.57943,117.6975 1012.29882,117.581876 1012.98242,117.350625 C1013.66602,117.119374 1014.27474,116.794377 1014.80859,116.375625 C1015.34245,115.956873 1015.7819,115.450628 1016.12695,114.856875 C1016.47201,114.263122 1016.6901,113.591254 1016.78125,112.84125 C1016.85938,112.203747 1016.83659,111.603753 1016.71289,111.04125 C1016.58919,110.478747 1016.36784,109.988127 1016.04883,109.569375 C1015.72982,109.150623 1015.31315,108.813126 1014.79883,108.556875 C1014.2845,108.300624 1013.67578,108.15375 1012.97266,108.11625 L1008.08984,108.0975 L1006.35156,117.66 Z M1036.95703,125.4225 L1028.36328,125.4225 L1025.31641,131.76 L1020.45313,131.76 L1034.35938,104.46 L1038.38281,104.46 L1042.23047,131.76 L1037.66016,131.76 L1036.95703,125.4225 Z M1030.21875,121.57875 L1036.50781,121.57875 L1035.33594,110.92875 L1030.21875,121.57875 Z M1069.65234,108.1725 L1061.19531,108.1725 L1056.9375,131.76 L1052.38672,131.76 L1056.64453,108.1725 L1048.22656,108.1725 L1048.91016,104.46 L1070.33594,104.46 L1069.65234,108.1725 Z M1087.21094,131.76 L1082.75781,131.76 L1084.96484,119.5725 L1075.60938,119.5725 L1073.40234,131.76 L1068.94922,131.76 L1073.89062,104.46 L1078.34375,104.46 L1076.27344,115.87875 L1085.60938,115.87875 L1087.67969,104.46 L1092.15234,104.46 L1087.21094,131.76 Z" id="PROVIDER://ACCESS_TO" fill="#10BCCD"></path>
            <path d="M301.46875,129.19125 C301.46875,128.728748 301.553385,128.297502 301.722656,127.8975 C301.891928,127.497498 302.126301,127.150626 302.425781,126.856875 C302.725262,126.563124 303.080076,126.331876 303.490234,126.163125 C303.900393,125.994374 304.352862,125.91 304.847656,125.91 C305.316409,125.91 305.749347,125.981874 306.146484,126.125625 C306.543622,126.269376 306.88216,126.478749 307.162109,126.75375 C307.442059,127.028751 307.663411,127.353748 307.826172,127.72875 C307.988933,128.103752 308.070312,128.516248 308.070312,128.96625 C308.070312,129.441252 307.982423,129.872498 307.806641,130.26 C307.630858,130.647502 307.393231,130.981874 307.09375,131.263125 C306.794269,131.544376 306.4362,131.763124 306.019531,131.919375 C305.602863,132.075626 305.153648,132.15375 304.671875,132.15375 C304.216144,132.15375 303.792971,132.085001 303.402344,131.9475 C303.011717,131.809999 302.673179,131.613126 302.386719,131.356875 C302.100259,131.100624 301.875652,130.788127 301.712891,130.419375 C301.550129,130.050623 301.46875,129.641252 301.46875,129.19125 Z" id="Path" fill="#6A7D98"></path>
            <path d="M304.339844,113.235 C304.339844,112.772498 304.424478,112.341252 304.59375,111.94125 C304.763022,111.541248 304.997394,111.194376 305.296875,110.900625 C305.596356,110.606874 305.95117,110.375626 306.361328,110.206875 C306.771486,110.038124 307.223956,109.95375 307.71875,109.95375 C308.187502,109.95375 308.620441,110.025624 309.017578,110.169375 C309.414716,110.313126 309.753254,110.522499 310.033203,110.7975 C310.313152,111.072501 310.534504,111.397498 310.697266,111.7725 C310.860027,112.147502 310.941406,112.559998 310.941406,113.01 C310.941406,113.485002 310.853517,113.916248 310.677734,114.30375 C310.501952,114.691252 310.264324,115.025624 309.964844,115.306875 C309.665363,115.588126 309.307294,115.806874 308.890625,115.963125 C308.473956,116.119376 308.024742,116.1975 307.542969,116.1975 C307.087237,116.1975 306.664064,116.128751 306.273438,115.99125 C305.882811,115.853749 305.544272,115.656876 305.257812,115.400625 C304.971353,115.144374 304.746746,114.831877 304.583984,114.463125 C304.421223,114.094373 304.339844,113.685002 304.339844,113.235 Z" id="Path" fill="#6A7D98"></path>
            <polygon id="Path" fill="#6A7D98" points="323.480469 134.10375 319.144531 134.10375 335.433594 104.46 339.75 104.46"></polygon>
            <polygon id="Path" fill="#6A7D98" points="346.957031 134.10375 342.621094 134.10375 358.910156 104.46 363.226563 104.46"></polygon>
            <path d="M653.617188,129.19125 C653.617188,128.728748 653.701822,128.297502 653.871094,127.8975 C654.040365,127.497498 654.274738,127.150626 654.574219,126.856875 C654.873699,126.563124 655.228514,126.331876 655.638672,126.163125 C656.04883,125.994374 656.5013,125.91 656.996094,125.91 C657.464846,125.91 657.897784,125.981874 658.294922,126.125625 C658.692059,126.269376 659.030598,126.478749 659.310547,126.75375 C659.590496,127.028751 659.811848,127.353748 659.974609,127.72875 C660.137371,128.103752 660.21875,128.516248 660.21875,128.96625 C660.21875,129.441252 660.13086,129.872498 659.955078,130.26 C659.779296,130.647502 659.541668,130.981874 659.242188,131.263125 C658.942707,131.544376 658.584637,131.763124 658.167969,131.919375 C657.7513,132.075626 657.302086,132.15375 656.820312,132.15375 C656.364581,132.15375 655.941408,132.085001 655.550781,131.9475 C655.160154,131.809999 654.821616,131.613126 654.535156,131.356875 C654.248696,131.100624 654.024089,130.788127 653.861328,130.419375 C653.698567,130.050623 653.617188,129.641252 653.617188,129.19125 Z" id="Path" fill="#6A7D98"></path>
            <path d="M656.488281,113.235 C656.488281,112.772498 656.572916,112.341252 656.742188,111.94125 C656.911459,111.541248 657.145832,111.194376 657.445312,110.900625 C657.744793,110.606874 658.099607,110.375626 658.509766,110.206875 C658.919924,110.038124 659.372393,109.95375 659.867188,109.95375 C660.33594,109.95375 660.768878,110.025624 661.166016,110.169375 C661.563153,110.313126 661.901691,110.522499 662.181641,110.7975 C662.46159,111.072501 662.682942,111.397498 662.845703,111.7725 C663.008464,112.147502 663.089844,112.559998 663.089844,113.01 C663.089844,113.485002 663.001954,113.916248 662.826172,114.30375 C662.65039,114.691252 662.412762,115.025624 662.113281,115.306875 C661.813801,115.588126 661.455731,115.806874 661.039062,115.963125 C660.622394,116.119376 660.173179,116.1975 659.691406,116.1975 C659.235675,116.1975 658.812502,116.128751 658.421875,115.99125 C658.031248,115.853749 657.69271,115.656876 657.40625,115.400625 C657.11979,115.144374 656.895183,114.831877 656.732422,114.463125 C656.569661,114.094373 656.488281,113.685002 656.488281,113.235 Z" id="Path" fill="#6A7D98"></path>
            <polygon id="Path" fill="#6A7D98" points="675.628906 134.10375 671.292969 134.10375 687.582031 104.46 691.898438 104.46"></polygon>
            <path d="M926.996094,116.4975 C926.904947,117.060003 926.784506,117.688122 926.634766,118.381875 C926.485025,119.075628 926.289715,119.772496 926.048828,120.4725 C925.807942,121.172503 925.514976,121.850622 925.169922,122.506875 C924.824868,123.163128 924.414716,123.744372 923.939453,124.250625 C923.46419,124.756878 922.923831,125.159998 922.318359,125.46 C921.712888,125.760001 921.026046,125.90375 920.257812,125.89125 C919.554684,125.86625 918.962242,125.685002 918.480469,125.3475 C917.998696,125.009998 917.660157,124.522503 917.464844,123.885 C917.230468,124.147501 916.979819,124.397499 916.712891,124.635 C916.445962,124.872501 916.166017,125.081874 915.873047,125.263125 C915.580077,125.444376 915.264325,125.588124 914.925781,125.694375 C914.587238,125.800626 914.229169,125.85375 913.851562,125.85375 C913.278643,125.85375 912.796877,125.738126 912.40625,125.506875 C912.015623,125.275624 911.699871,124.975627 911.458984,124.606875 C911.218098,124.238123 911.042318,123.813127 910.931641,123.331875 C910.820963,122.850623 910.752604,122.363127 910.726562,121.869375 C910.700521,121.375623 910.707031,120.888127 910.746094,120.406875 C910.785156,119.925623 910.837239,119.497502 910.902344,119.1225 C911.006511,118.472497 911.162759,117.800628 911.371094,117.106875 C911.579428,116.413122 911.836587,115.735003 912.142578,115.0725 C912.448569,114.409997 912.813149,113.781878 913.236328,113.188125 C913.659507,112.594372 914.144529,112.075627 914.691406,111.631875 C915.238284,111.188123 915.847002,110.841251 916.517578,110.59125 C917.188154,110.341249 917.927079,110.2225 918.734375,110.235 C919.476566,110.26 920.153643,110.397499 920.765625,110.6475 C921.377607,110.897501 921.930987,111.291247 922.425781,111.82875 L920.101562,121.50375 C920.075521,121.691251 920.046224,121.894374 920.013672,122.113125 C919.98112,122.331876 919.98112,122.534999 920.013672,122.7225 C920.046224,122.910001 920.121093,123.069374 920.238281,123.200625 C920.355469,123.331876 920.55078,123.40375 920.824219,123.41625 C921.27995,123.44125 921.680337,123.325626 922.025391,123.069375 C922.370444,122.813124 922.673176,122.478752 922.933594,122.06625 C923.194012,121.653748 923.408853,121.188128 923.578125,120.669375 C923.747397,120.150622 923.890624,119.635003 924.007812,119.1225 C924.125001,118.609997 924.216146,118.128752 924.28125,117.67875 C924.346354,117.228748 924.398437,116.860001 924.4375,116.5725 C924.528646,115.884997 924.587239,115.181879 924.613281,114.463125 C924.639323,113.744371 924.606771,113.044378 924.515625,112.363125 C924.424479,111.681872 924.26172,111.035003 924.027344,110.4225 C923.792968,109.809997 923.464195,109.275627 923.041016,108.819375 C922.617836,108.363123 922.087243,107.994376 921.449219,107.713125 C920.811195,107.431874 920.042973,107.27875 919.144531,107.25375 C918.063797,107.22875 917.070968,107.378748 916.166016,107.70375 C915.261063,108.028752 914.437504,108.484997 913.695312,109.0725 C912.953121,109.660003 912.289065,110.347496 911.703125,111.135 C911.117185,111.922504 910.606122,112.756871 910.169922,113.638125 C909.733722,114.519379 909.369142,115.422495 909.076172,116.3475 C908.783202,117.272505 908.565105,118.166246 908.421875,119.02875 C908.291666,119.766254 908.200521,120.528746 908.148437,121.31625 C908.096354,122.103754 908.11263,122.872496 908.197266,123.6225 C908.281901,124.372504 908.441405,125.081872 908.675781,125.750625 C908.910157,126.419378 909.255206,127.003747 909.710937,127.50375 C910.166669,128.003752 910.73958,128.403748 911.429687,128.70375 C912.119795,129.003751 912.95963,129.16 913.949219,129.1725 C914.769535,129.185 915.567053,129.091251 916.341797,128.89125 C917.11654,128.691249 917.868486,128.422502 918.597656,128.085 L919.027344,130.54125 C918.285153,131.028752 917.468103,131.381874 916.576172,131.600625 C915.68424,131.819376 914.789067,131.91625 913.890625,131.89125 C912.614577,131.87875 911.498052,131.694377 910.541016,131.338125 C909.58398,130.981873 908.770186,130.497503 908.099609,129.885 C907.429033,129.272497 906.885419,128.553754 906.46875,127.72875 C906.052081,126.903746 905.74935,126.016255 905.560547,125.06625 C905.371744,124.116245 905.280599,123.12563 905.287109,122.094375 C905.29362,121.06312 905.38151,120.035005 905.550781,119.01 C905.720053,117.922495 905.999998,116.806881 906.390625,115.663125 C906.781252,114.519369 907.266273,113.410005 907.845703,112.335 C908.425133,111.259995 909.105465,110.24438 909.886719,109.288125 C910.667973,108.33187 911.537105,107.497504 912.494141,106.785 C913.451177,106.072496 914.499343,105.519377 915.638672,105.125625 C916.778,104.731873 917.998691,104.5475 919.300781,104.5725 C920.420579,104.5975 921.410152,104.781873 922.269531,105.125625 C923.128911,105.469377 923.86458,105.934997 924.476562,106.5225 C925.088545,107.110003 925.589842,107.788121 925.980469,108.556875 C926.371096,109.325629 926.664062,110.147496 926.859375,111.0225 C927.054688,111.897504 927.158854,112.803745 927.171875,113.74125 C927.184896,114.678755 927.126303,115.597495 926.996094,116.4975 Z" id="Path" fill="#6A7D98"></path>
            <path d="M913.871094,119.1225 C913.832031,119.335001 913.783203,119.653748 913.724609,120.07875 C913.666015,120.503752 913.646484,120.934998 913.666016,121.3725 C913.685547,121.810002 913.770182,122.197498 913.919922,122.535 C914.069662,122.872502 914.339842,123.05375 914.730469,123.07875 C915.003908,123.09125 915.261067,123.056875 915.501953,122.975625 C915.74284,122.894375 915.967447,122.785001 916.175781,122.6475 C916.384116,122.509999 916.579426,122.353751 916.761719,122.17875 C916.944011,122.003749 917.119791,121.822501 917.289063,121.635 L917.308594,121.485 L919.59375,112.95375 C919.476562,112.92875 919.362631,112.90375 919.251953,112.87875 C919.141275,112.85375 919.027344,112.84125 918.910156,112.84125 C918.076819,112.81625 917.36719,113.009998 916.78125,113.4225 C916.19531,113.835002 915.703778,114.359997 915.306641,114.9975 C914.909503,115.635003 914.597006,116.325621 914.369141,117.069375 C914.141275,117.813129 913.975261,118.497497 913.871094,119.1225 Z" id="Path" fill="#FFFFFF"></path>
        </g>
    </g>
</svg>
